<svg xmlns="http://www.w3.org/2000/svg" xmlns:xlink="http://www.w3.org/1999/xlink" version="1.1" x="0px" y="0px" viewBox="0 0 100 100" style="enable-background:new 0 0 100 100;" xml:space="preserve"><path d="M21.93,84.95l10.01-4.91l10.33-5.07l0.26-0.14l11.34-5.55l0.02-0.02c0.34-0.08,0.64-0.22,0.9-0.44  c0.04-0.02,0.06-0.04,0.08-0.04c0.06-0.06,0.12-0.1,0.18-0.16c0.08-0.06,0.12-0.14,0.16-0.2c0.76-0.94,1.12-2.8-0.86-6.47  c-1.5-2.76-3.95-5.91-6.93-8.91c-2.98-2.98-6.13-5.43-8.89-6.91c-3.7-1.98-5.55-1.62-6.49-0.86c-0.1,0.06-0.16,0.12-0.24,0.2  c0,0.02-0.02,0.02-0.02,0.04c-0.26,0.26-0.48,0.64-0.58,1.12l-0.02,0.02l-5.61,11.4l-0.02,0.06l-0.02,0.04l-5.09,10.37L15.4,78.7  l-0.04,0.08l-4.81,9.79c-0.2,0.38-0.12,0.84,0.18,1.16c0.2,0.18,0.46,0.28,0.72,0.28c0.14,0,0.3-0.02,0.44-0.1l9.79-4.81  L21.93,84.95z M33.1,47.3v-0.02l0.26-0.54h0.02c0.12-0.06,0.32-0.1,0.58-0.1c0.68,0,1.84,0.28,3.64,1.24  c2.58,1.4,5.57,3.74,8.43,6.57c2.84,2.86,5.17,5.83,6.57,8.43c1.34,2.52,1.36,3.79,1.12,4.23l-0.54,0.26l-0.02,0.02  c-1.64,0.18-6.43-1.98-12.26-7.81c-2.84-2.86-5.17-5.83-6.57-8.43C33.24,49.13,33.02,47.92,33.1,47.3z M26.47,60.76  c1.3,2.32,3.38,4.95,5.83,7.41c2.46,2.48,5.11,4.55,7.41,5.83l-8.19,4.01c-1.6-0.98-3.36-2.44-5.01-4.07  c-1.64-1.64-3.06-3.4-4.07-4.99L26.47,60.76z M13.64,86.82l2.88-5.83c0.44,0.52,0.92,1.04,1.42,1.54s1.02,1,1.54,1.42L13.64,86.82z"/><path d="M48.89,50.08c0.26,0,0.51-0.1,0.71-0.29l17.8-17.8c2.3-2.3,2.3-6.05,0-8.35c-2.23-2.23-6.13-2.23-8.35,0  c-1.12,1.12-1.73,2.6-1.73,4.18c0,1.58,0.61,3.06,1.73,4.18c0.39,0.39,1.02,0.39,1.41,0c0.39-0.39,0.39-1.02,0-1.41  c-0.74-0.74-1.14-1.72-1.14-2.76s0.41-2.03,1.14-2.76c1.47-1.47,4.05-1.48,5.53,0c1.52,1.52,1.52,4,0,5.53l-17.8,17.8  c-0.39,0.39-0.39,1.02,0,1.41C48.38,49.98,48.64,50.08,48.89,50.08z"/><path d="M74.91,37.61c-0.39-0.39-1.02-0.39-1.41,0c-0.39,0.39-0.39,1.02,0,1.41c1.4,1.4,3.24,2.1,5.07,2.1c1.84,0,3.68-0.7,5.08-2.1  c2.8-2.8,2.8-7.35,0-10.15c-2.8-2.8-7.35-2.8-10.15,0L51.09,51.28c-0.39,0.39-0.39,1.02,0,1.41c0.2,0.2,0.45,0.29,0.71,0.29  c0.26,0,0.51-0.1,0.71-0.29l22.41-22.41c2.02-2.02,5.31-2.02,7.32,0c0.98,0.98,1.52,2.28,1.52,3.66c0,1.38-0.54,2.68-1.52,3.66  C80.28,39.57,76.87,39.57,74.91,37.61z"/><path d="M71.35,42.72c-1.62-1.62-4.26-1.62-5.88,0L54,54.19c-0.39,0.39-0.39,1.02,0,1.41c0.2,0.2,0.45,0.29,0.71,0.29  c0.26,0,0.51-0.1,0.71-0.29l11.47-11.47c0.84-0.84,2.22-0.84,3.06,0c0.84,0.84,0.84,2.22,0,3.06c-0.84,0.84-2.22,0.84-3.06,0  c-0.39-0.39-1.02-0.39-1.41,0c-0.39,0.39-0.39,1.02,0,1.41c0.81,0.81,1.88,1.22,2.94,1.22s2.13-0.4,2.94-1.22  C72.97,46.98,72.97,44.34,71.35,42.72z"/><path d="M45.99,47.18c0.26,0,0.51-0.1,0.71-0.29l8.9-8.9c1.35-1.35,1.35-3.54,0-4.88c-1.35-1.34-3.54-1.34-4.88,0  c-1.35,1.35-1.35,3.54,0,4.88c0.39,0.39,1.02,0.39,1.41,0c0.39-0.39,0.39-1.02,0-1.41c-0.57-0.57-0.57-1.49,0-2.06  c0.57-0.57,1.49-0.57,2.06,0c0.57,0.57,0.57,1.49,0,2.06l-8.9,8.9c-0.39,0.39-0.39,1.02,0,1.41C45.48,47.08,45.73,47.18,45.99,47.18  z"/><circle cx="36.82" cy="29.15" r="6.63"/><circle cx="84.75" cy="53.97" r="4.81"/><path d="M64.54,53.68c0,2.66-2.15,4.81-4.81,4.81c2.66,0,4.81,2.15,4.81,4.81c0-2.66,2.15-4.81,4.81-4.81  C66.69,58.49,64.54,56.34,64.54,53.68z"/><path d="M50.7,14.55c0.55,0,1-0.45,1-1V11c0-0.55-0.45-1-1-1c-0.55,0-1,0.45-1,1v2.55C49.7,14.1,50.15,14.55,50.7,14.55z"/><path d="M49.7,20.52c0,0.55,0.45,1,1,1c0.55,0,1-0.45,1-1v-2.55c0-0.55-0.45-1-1-1c-0.55,0-1,0.45-1,1V20.52z"/><path d="M48.49,16.76c0.55,0,1-0.45,1-1s-0.45-1-1-1h-2.55c-0.55,0-1,0.45-1,1s0.45,1,1,1H48.49z"/><path d="M51.91,15.76c0,0.55,0.45,1,1,1h2.55c0.55,0,1-0.45,1-1s-0.45-1-1-1h-2.55C52.35,14.76,51.91,15.21,51.91,15.76z"/><path d="M76.41,14.55c0.55,0,1-0.45,1-1V11c0-0.55-0.45-1-1-1s-1,0.45-1,1v2.55C75.41,14.1,75.86,14.55,76.41,14.55z"/><path d="M75.41,20.52c0,0.55,0.45,1,1,1s1-0.45,1-1v-2.55c0-0.55-0.45-1-1-1s-1,0.45-1,1V20.52z"/><path d="M70.65,15.76c0,0.55,0.45,1,1,1h2.55c0.55,0,1-0.45,1-1s-0.45-1-1-1h-2.55C71.1,14.76,70.65,15.21,70.65,15.76z"/><path d="M81.17,14.76h-2.55c-0.55,0-1,0.45-1,1s0.45,1,1,1h2.55c0.55,0,1-0.45,1-1S81.72,14.76,81.17,14.76z"/><text x="0" y="115" fill="#000000" font-size="5px" font-weight="bold" font-family="'Helvetica Neue', Helvetica, Arial-Unicode, Arial, Sans-serif">Created by ainul muttaqin</text><text x="0" y="120" fill="#000000" font-size="5px" font-weight="bold" font-family="'Helvetica Neue', Helvetica, Arial-Unicode, Arial, Sans-serif">from the Noun Project</text></svg>